HIERARCHY
ROOT Hips
{
    OFFSET 0.000000 0.000000 0.000000
    CHANNELS 6 Xposition Yposition Zposition Zrotation Xrotation Yrotation
        JOINT Chest
        {
            OFFSET -0.000000 34.099812 -0.000000
            CHANNELS 3 Zrotation Xrotation Yrotation
            JOINT Neck
            {
                OFFSET -0.000000 25.785578 0.000000
                CHANNELS 3 Zrotation Xrotation Yrotation
                JOINT Head
                {
                    OFFSET -0.000000 11.061110 0.000000
                    CHANNELS 3 Zrotation Xrotation Yrotation
                    End Site
                    {
                        OFFSET -0.000000 17.094444 0.000000
                    }
                }
            }
            JOINT LeftCollar
            {
                OFFSET -0.000000 25.785578 0.000000
                CHANNELS 3 Zrotation Xrotation Yrotation
                JOINT LeftShoulder
                {
                    OFFSET 19.000000 -0.000000 0.000000
                    CHANNELS 3 Zrotation Xrotation Yrotation
                    JOINT LeftElbow
                    {
                        OFFSET 29.227484 0.000000 0.000000
                        CHANNELS 3 Zrotation Xrotation Yrotation
                        JOINT LeftWrist
                        {
                            OFFSET 22.377386 0.000000 0.000000
                            CHANNELS 3 Zrotation Xrotation Yrotation
                            End Site
                            {
                                OFFSET 0.000000 -15.083334 0.000000
                            }
                        }
                    }
                }
            }
            JOINT RightCollar
            {
                OFFSET -0.000000 25.785578 0.000000
                CHANNELS 3 Zrotation Xrotation Yrotation
                JOINT RightShoulder
                {
                    OFFSET -19.000000 0.000000 0.000000
                    CHANNELS 3 Zrotation Xrotation Yrotation
                    JOINT RightElbow
                    {
                        OFFSET -29.227484 0.000000 0.000000
                        CHANNELS 3 Zrotation Xrotation Yrotation
                        JOINT RightWrist
                        {
                            OFFSET -22.377386 0.000000 0.000000
                            CHANNELS 3 Zrotation Xrotation Yrotation
                            End Site
                            {
                                OFFSET -0.000000 -15.083334 0.000000
                            }
                        }
                    }
                }
            }
        }
    JOINT LeftHip
    {
        OFFSET 12.066666 0.000000 0.000000
        CHANNELS 3 Zrotation Xrotation Yrotation
        JOINT LeftKnee
        {
            OFFSET -0.000000 -38.619030 0.000000
            CHANNELS 3 Zrotation Xrotation Yrotation
            JOINT LeftAnkle
            {
                OFFSET -0.000000 -42.566540 0.000000
                CHANNELS 3 Zrotation Xrotation Yrotation
                End Site
                {
                    OFFSET -0.000000 -5.027778 17.094444
                }
            }
        }
    }
    JOINT RightHip
    {
        OFFSET -12.066666 0.000000 0.000000
        CHANNELS 3 Zrotation Xrotation Yrotation
        JOINT RightKnee
        {
            OFFSET -0.000000 -38.619030 0.000000
            CHANNELS 3 Zrotation Xrotation Yrotation
            JOINT RightAnkle
            {
                OFFSET -0.000000 -42.566540 0.000000
                CHANNELS 3 Zrotation Xrotation Yrotation
                End Site
                {
                    OFFSET -0.000000 -5.027778 17.094444
                }
            }
        }
    }
}
MOTION
Frames:    6
Frame Time:    0.010000
15.694607    85.270630    81.862350    -1.648093    -7.867947    -6.303149    12.728354    19.102362    -8.933056    -4.666581    -0.022823    -9.646649    8.643604    -22.874578    -7.891442    -7.120692    -0.283984    4.198219    -73.178337    -2.204735    -13.930597    -30.827986    25.001617    -78.709747    108.391289    10.045073    7.324439    30.150198    2.183653    8.012691    17.132292    45.520752    21.112371    -2.249477    -1.247300    65.397133    -117.060150    4.537416    -22.865887    -0.748595    2.398685    -3.946982    -19.815355    40.178185    9.115476    9.449122    -25.232100    36.805145    1.479254    -24.935757    6.761940    1.146092    12.330390    -5.699057    12.045982    15.371091    -17.155432    
15.834538    85.094521    80.904388    -1.575714    -7.887932    -6.810938    12.101554    19.352877    -9.043419    -4.545552    -0.121057    -9.419331    8.916368    -22.653442    -7.623257    -7.132313    -0.250468    4.041357    -73.177277    -2.028252    -14.537232    -30.446434    25.042576    -79.155617    109.084061    10.213608    8.677538    29.949156    2.115761    7.825694    17.353302    45.339039    20.710558    -1.917666    -1.029660    65.779854    -116.694374    3.199912    -21.510653    -1.362561    2.059056    -3.539323    -19.263245    39.870689    9.647921    10.186622    -25.809717    37.431919    1.513414    -25.164551    7.320395    0.489204    11.615104    -5.823690    15.445582    15.523969    -17.631002    
15.971544    84.950394    79.933365    -1.490493    -7.870562    -7.339716    11.474738    19.580154    -9.113064    -4.434322    -0.243572    -9.211438    9.180701    -22.430115    -7.376070    -7.124854    -0.210294    3.861626    -73.160988    -1.914437    -15.071096    -30.164488    25.088263    -79.621819    109.757828    10.291554    9.794984    29.728704    2.045935    7.631402    17.560284    45.162457    20.368568    -1.569082    -0.799697    66.158005    -116.494919    2.012919    -20.245300    -1.896218    1.622591    -3.246220    -18.880474    39.588776    10.148371    10.652680    -26.300234    37.901249    1.509731    -25.423628    8.035810    -0.142220    10.953967    -6.142588    18.976831    15.573904    -18.023891    
16.102835    84.841606    78.963905    -1.401308    -7.835207    -7.884840    10.854939    19.795837    -9.152235    -4.324960    -0.396912    -9.022116    9.417998    -22.189724    -7.154751    -7.101950    -0.208782    3.689983    -73.116600    -1.776885    -15.519387    -29.904581    25.111200    -80.136276    110.384445    10.307249    10.721541    29.495405    1.975205    7.429600    17.768827    44.982529    20.062342    -1.207572    -0.559839    66.540070    -116.404190    0.953834    -19.081518    -2.336186    1.124108    -3.052360    -18.663002    39.320309    10.614345    10.917686    -26.646702    38.230259    1.459150    -25.680841    8.901402    -0.699831    10.370491    -6.651716    22.425371    15.531054    -18.269224    
16.225315    84.769974    78.007957    -1.317879    -7.796251    -8.445494    10.248752    20.005871    -9.163800    -4.211247    -0.585930    -8.847608    9.612052    -21.916162    -6.959785    -7.076881    -0.227014    3.567170    -73.022728    -1.553584    -15.931446    -29.651018    25.116703    -80.629921    110.989227    10.267723    11.464334    29.258760    1.910240    7.228137    17.995293    44.787521    19.761400    -0.831805    -0.307353    66.934448    -116.352676    0.002249    -18.020348    -2.672059    0.594818    -2.930094    -18.596035    39.052582    11.056055    11.050675    -26.808929    38.432167    1.357065    -25.916431    9.892764    -1.134282    9.897259    -7.296066    25.545588    15.393919    -18.316795    
16.335936    84.736404    77.074409    -1.250819    -7.763071    -9.024534    9.663433    20.210550    -9.145323    -4.088182    -0.804659    -8.687097    9.751026    -21.603209    -6.792811    -7.067777    -0.206630    3.522969    -72.855957    -1.205221    -16.390030    -29.409967    25.101467    -81.047745    111.575897    10.180696    11.949025    29.031273    1.853609    7.030191    18.246748    44.571224    19.445881    -0.450768    -0.049709    67.342354    -116.276642    -0.843940    -17.052645    -2.896482    0.060650    -2.842327    -18.654364    38.776268    11.482334    11.118228    -26.762375    38.518803    1.206249    -26.121876    10.967617    -1.402445    9.571246    -7.968377    28.099785    15.129065    -18.148104    
